<svg width="172" height="49" viewBox="0 0 172 49" fill="none" xmlns="http://www.w3.org/2000/svg">
<path d="M4.53125 37.4062L4.125 38.25C4.125 38.8542 4.96875 39.4375 6.65625 40C8.36458 40.5417 10.2292 40.8125 12.25 40.8125C14.2917 40.8125 16.5312 40.5104 18.9688 39.9062C21.4062 39.3021 23.5208 38.5625 25.3125 37.6875C27.125 36.8125 28.6146 35.8958 29.7812 34.9375C30.9688 33.9792 31.5625 33.1458 31.5625 32.4375C31.5625 31.5417 30.5208 30.7083 28.4375 29.9375C26.3542 29.1667 23.3229 28.3229 19.3438 27.4062C15.3854 26.4688 12.4792 25.2917 10.625 23.875C8.79167 22.4583 7.875 20.7396 7.875 18.7188C7.875 16.6771 8.60417 14.7292 10.0625 12.875C11.5208 11.0208 13.4167 9.375 15.75 7.9375C18.1042 6.5 20.6667 5.21875 23.4375 4.09375C29.1667 1.78125 34.4792 0.625 39.375 0.625C41.25 0.625 42.9062 0.791667 44.3438 1.125C47.0938 1.77083 48.4688 2.625 48.4688 3.6875C48.4688 4.75 48.375 5.47917 48.1875 5.875C48 6.25 47.8438 6.5 47.7188 6.625C47.6146 6.75 47.4688 6.875 47.2812 7C47.1146 7.125 46.9896 7.21875 46.9062 7.28125C45.9896 8.05208 43.4792 8.53125 39.375 8.71875C37.9583 8.78125 37.1875 8.85417 37.0625 8.9375C36.9375 9.02083 36.8229 9.0625 36.7188 9.0625C36.6354 9.0625 36.5312 8.97917 36.4062 8.8125C36.2812 8.64583 36.2188 8.375 36.2188 8C36.2188 7.625 36.625 6.9375 37.4375 5.9375C34.8958 6.08333 32.1771 6.66667 29.2812 7.6875C26.4062 8.70833 23.9062 9.86458 21.7812 11.1562C19.6562 12.4271 17.8854 13.6875 16.4688 14.9375C15.0521 16.1667 14.3438 17.0417 14.3438 17.5625C14.3438 18.0625 14.5 18.4792 14.8125 18.8125C15.6875 19.75 18.1146 20.7292 22.0938 21.75C26.2188 22.8125 28.9688 23.6667 30.3438 24.3125C31.7188 24.9583 32.8542 25.5729 33.75 26.1562C34.6667 26.7396 35.3958 27.3333 35.9375 27.9375C37.2083 29.3958 37.8438 30.875 37.8438 32.375C37.8438 33.875 37.4375 35.2812 36.625 36.5938C35.8333 37.9062 34.625 39.1771 33 40.4062C31.3958 41.6354 29.5 42.7292 27.3125 43.6875C22.5208 45.8333 16.8125 46.9062 10.1875 46.9062C5.35417 46.9062 2.27083 45.625 0.9375 43.0625C0.583333 42.4167 0.40625 41.75 0.40625 41.0625C0.40625 40.3542 0.5625 39.7188 0.875 39.1562C1.20833 38.5938 1.60417 38.1667 2.0625 37.875C2.95833 37.3125 3.59375 37.0312 3.96875 37.0312C4.34375 37.0312 4.53125 37.1562 4.53125 37.4062ZM82.4688 2.15625C83.1146 0.71875 83.5729 0 83.8438 0H84C84.3125 0 84.9479 0.333333 85.9062 1C86.8646 1.66667 87.3438 2.29167 87.3438 2.875C87.3438 3.6875 84.6771 9.97917 79.3438 21.75C74.0104 33.5208 70.9479 40.125 70.1562 41.5625C69.3854 42.9792 68.8542 43.9271 68.5625 44.4062C68.2708 44.8854 67.875 45.4167 67.375 46C66.4792 47.1042 65.3646 47.6562 64.0312 47.6562C63.4896 47.6562 63.0104 47.7188 62.5938 47.8438C62.1771 47.9896 61.9271 48.0625 61.8438 48.0625C61.1771 48.0625 60.8438 47.9062 60.8438 47.5938C60.8438 47.5312 60.9271 47.2708 61.0938 46.8125C61.2812 46.375 63.6667 41.3229 68.25 31.6562C63.3542 31.4688 59.0521 31.3229 55.3438 31.2188C51.7812 35.6979 48.5521 40.3854 45.6562 45.2812C45.3021 45.9688 44.9688 46.4479 44.6562 46.7188C44.3438 47.0104 43.9167 47.1562 43.375 47.1562C42.8333 47.1562 42.25 46.875 41.625 46.3125C41 45.7708 40.6875 45.1354 40.6875 44.4062C40.6875 42.3229 43.375 37.8646 48.75 31.0312C46.2292 31.0312 44.625 31.0938 43.9375 31.2188C43.2708 31.3438 42.8438 31.4062 42.6562 31.4062C42.0938 31.4062 41.8125 30.9375 41.8125 30C41.8125 29.0417 42.3646 28.2083 43.4688 27.5C44.5938 26.7708 46.0938 26.4062 47.9688 26.4062C48.1146 26.4062 48.375 26.3958 48.75 26.375C50.0417 26.3125 51.3646 26.2604 52.7188 26.2188C57.2604 20.8854 62.0104 15.9375 66.9688 11.375C71.9271 6.8125 76.2188 3.61458 79.8438 1.78125C80.4271 1.48958 80.8854 1.35417 81.2188 1.375C81.5729 1.375 81.9896 1.63542 82.4688 2.15625ZM80.2812 6.5625C72.6771 12.3333 65.7292 18.8854 59.4375 26.2188C63.125 26.3021 66.8542 26.4583 70.625 26.6875C74.4167 18.7083 77.6354 12 80.2812 6.5625ZM84.9688 37.4062L84.5625 38.25C84.5625 38.8542 85.4062 39.4375 87.0938 40C88.8021 40.5417 90.6667 40.8125 92.6875 40.8125C94.7292 40.8125 96.9688 40.5104 99.4062 39.9062C101.844 39.3021 103.958 38.5625 105.75 37.6875C107.562 36.8125 109.052 35.8958 110.219 34.9375C111.406 33.9792 112 33.1458 112 32.4375C112 31.5417 110.958 30.7083 108.875 29.9375C106.792 29.1667 103.76 28.3229 99.7812 27.4062C95.8229 26.4688 92.9167 25.2917 91.0625 23.875C89.2292 22.4583 88.3125 20.7396 88.3125 18.7188C88.3125 16.6771 89.0417 14.7292 90.5 12.875C91.9583 11.0208 93.8542 9.375 96.1875 7.9375C98.5417 6.5 101.104 5.21875 103.875 4.09375C109.604 1.78125 114.917 0.625 119.812 0.625C121.688 0.625 123.344 0.791667 124.781 1.125C127.531 1.77083 128.906 2.625 128.906 3.6875C128.906 4.75 128.812 5.47917 128.625 5.875C128.438 6.25 128.281 6.5 128.156 6.625C128.052 6.75 127.906 6.875 127.719 7C127.552 7.125 127.427 7.21875 127.344 7.28125C126.427 8.05208 123.917 8.53125 119.812 8.71875C118.396 8.78125 117.625 8.85417 117.5 8.9375C117.375 9.02083 117.26 9.0625 117.156 9.0625C117.073 9.0625 116.969 8.97917 116.844 8.8125C116.719 8.64583 116.656 8.375 116.656 8C116.656 7.625 117.062 6.9375 117.875 5.9375C115.333 6.08333 112.615 6.66667 109.719 7.6875C106.844 8.70833 104.344 9.86458 102.219 11.1562C100.094 12.4271 98.3229 13.6875 96.9062 14.9375C95.4896 16.1667 94.7812 17.0417 94.7812 17.5625C94.7812 18.0625 94.9375 18.4792 95.25 18.8125C96.125 19.75 98.5521 20.7292 102.531 21.75C106.656 22.8125 109.406 23.6667 110.781 24.3125C112.156 24.9583 113.292 25.5729 114.188 26.1562C115.104 26.7396 115.833 27.3333 116.375 27.9375C117.646 29.3958 118.281 30.875 118.281 32.375C118.281 33.875 117.875 35.2812 117.062 36.5938C116.271 37.9062 115.062 39.1771 113.438 40.4062C111.833 41.6354 109.938 42.7292 107.75 43.6875C102.958 45.8333 97.25 46.9062 90.625 46.9062C85.7917 46.9062 82.7083 45.625 81.375 43.0625C81.0208 42.4167 80.8438 41.75 80.8438 41.0625C80.8438 40.3542 81 39.7188 81.3125 39.1562C81.6458 38.5938 82.0417 38.1667 82.5 37.875C83.3958 37.3125 84.0312 37.0312 84.4062 37.0312C84.7812 37.0312 84.9688 37.1562 84.9688 37.4062ZM127.781 37.4062L127.375 38.25C127.375 38.8542 128.219 39.4375 129.906 40C131.615 40.5417 133.479 40.8125 135.5 40.8125C137.542 40.8125 139.781 40.5104 142.219 39.9062C144.656 39.3021 146.771 38.5625 148.562 37.6875C150.375 36.8125 151.865 35.8958 153.031 34.9375C154.219 33.9792 154.812 33.1458 154.812 32.4375C154.812 31.5417 153.771 30.7083 151.688 29.9375C149.604 29.1667 146.573 28.3229 142.594 27.4062C138.635 26.4688 135.729 25.2917 133.875 23.875C132.042 22.4583 131.125 20.7396 131.125 18.7188C131.125 16.6771 131.854 14.7292 133.312 12.875C134.771 11.0208 136.667 9.375 139 7.9375C141.354 6.5 143.917 5.21875 146.688 4.09375C152.417 1.78125 157.729 0.625 162.625 0.625C164.5 0.625 166.156 0.791667 167.594 1.125C170.344 1.77083 171.719 2.625 171.719 3.6875C171.719 4.75 171.625 5.47917 171.438 5.875C171.25 6.25 171.094 6.5 170.969 6.625C170.865 6.75 170.719 6.875 170.531 7C170.365 7.125 170.24 7.21875 170.156 7.28125C169.24 8.05208 166.729 8.53125 162.625 8.71875C161.208 8.78125 160.438 8.85417 160.312 8.9375C160.188 9.02083 160.073 9.0625 159.969 9.0625C159.885 9.0625 159.781 8.97917 159.656 8.8125C159.531 8.64583 159.469 8.375 159.469 8C159.469 7.625 159.875 6.9375 160.688 5.9375C158.146 6.08333 155.427 6.66667 152.531 7.6875C149.656 8.70833 147.156 9.86458 145.031 11.1562C142.906 12.4271 141.135 13.6875 139.719 14.9375C138.302 16.1667 137.594 17.0417 137.594 17.5625C137.594 18.0625 137.75 18.4792 138.062 18.8125C138.938 19.75 141.365 20.7292 145.344 21.75C149.469 22.8125 152.219 23.6667 153.594 24.3125C154.969 24.9583 156.104 25.5729 157 26.1562C157.917 26.7396 158.646 27.3333 159.188 27.9375C160.458 29.3958 161.094 30.875 161.094 32.375C161.094 33.875 160.688 35.2812 159.875 36.5938C159.083 37.9062 157.875 39.1771 156.25 40.4062C154.646 41.6354 152.75 42.7292 150.562 43.6875C145.771 45.8333 140.062 46.9062 133.438 46.9062C128.604 46.9062 125.521 45.625 124.188 43.0625C123.833 42.4167 123.656 41.75 123.656 41.0625C123.656 40.3542 123.812 39.7188 124.125 39.1562C124.458 38.5938 124.854 38.1667 125.312 37.875C126.208 37.3125 126.844 37.0312 127.219 37.0312C127.594 37.0312 127.781 37.1562 127.781 37.4062Z" fill="black"/>
</svg>
