<svg width="171" height="47" viewBox="0 0 171 47" fill="none" xmlns="http://www.w3.org/2000/svg">
<path d="M4.53125 37.4062L4.125 38.25C4.125 38.8542 4.96875 39.4375 6.65625 40C8.36458 40.5417 10.2292 40.8125 12.25 40.8125C14.2917 40.8125 16.5312 40.5104 18.9688 39.9062C21.4062 39.3021 23.5208 38.5625 25.3125 37.6875C27.125 36.8125 28.6146 35.8958 29.7812 34.9375C30.9688 33.9792 31.5625 33.1458 31.5625 32.4375C31.5625 31.5417 30.5208 30.7083 28.4375 29.9375C26.3542 29.1667 23.3229 28.3229 19.3438 27.4062C15.3854 26.4688 12.4792 25.2917 10.625 23.875C8.79167 22.4583 7.875 20.7396 7.875 18.7188C7.875 16.6771 8.60417 14.7292 10.0625 12.875C11.5208 11.0208 13.4167 9.375 15.75 7.9375C18.1042 6.5 20.6667 5.21875 23.4375 4.09375C29.1667 1.78125 34.4792 0.625 39.375 0.625C41.25 0.625 42.9062 0.791667 44.3438 1.125C47.0938 1.77083 48.4688 2.625 48.4688 3.6875C48.4688 4.75 48.375 5.47917 48.1875 5.875C48 6.25 47.8438 6.5 47.7188 6.625C47.6146 6.75 47.4688 6.875 47.2812 7C47.1146 7.125 46.9896 7.21875 46.9062 7.28125C45.9896 8.05208 43.4792 8.53125 39.375 8.71875C37.9583 8.78125 37.1875 8.85417 37.0625 8.9375C36.9375 9.02083 36.8229 9.0625 36.7188 9.0625C36.6354 9.0625 36.5312 8.97917 36.4062 8.8125C36.2812 8.64583 36.2188 8.375 36.2188 8C36.2188 7.625 36.625 6.9375 37.4375 5.9375C34.8958 6.08333 32.1771 6.66667 29.2812 7.6875C26.4062 8.70833 23.9062 9.86458 21.7812 11.1562C19.6562 12.4271 17.8854 13.6875 16.4688 14.9375C15.0521 16.1667 14.3438 17.0417 14.3438 17.5625C14.3438 18.0625 14.5 18.4792 14.8125 18.8125C15.6875 19.75 18.1146 20.7292 22.0938 21.75C26.2188 22.8125 28.9688 23.6667 30.3438 24.3125C31.7188 24.9583 32.8542 25.5729 33.75 26.1562C34.6667 26.7396 35.3958 27.3333 35.9375 27.9375C37.2083 29.3958 37.8438 30.875 37.8438 32.375C37.8438 33.875 37.4375 35.2812 36.625 36.5938C35.8333 37.9062 34.625 39.1771 33 40.4062C31.3958 41.6354 29.5 42.7292 27.3125 43.6875C22.5208 45.8333 16.8125 46.9062 10.1875 46.9062C5.35417 46.9062 2.27083 45.625 0.9375 43.0625C0.583333 42.4167 0.40625 41.75 0.40625 41.0625C0.40625 40.3542 0.5625 39.7188 0.875 39.1562C1.20833 38.5938 1.60417 38.1667 2.0625 37.875C2.95833 37.3125 3.59375 37.0312 3.96875 37.0312C4.34375 37.0312 4.53125 37.1562 4.53125 37.4062ZM75 27.7812C75.5 27.7812 75.75 28.1875 75.75 29C75.75 29.7917 75.5729 31.1667 75.2188 33.125C74.9479 34.4375 73.4479 36.3125 70.7188 38.75C67.4271 41.6667 63.8125 43.75 59.875 45C57.5 45.75 55.1771 46.125 52.9062 46.125C50.6562 46.125 48.5938 45.1771 46.7188 43.2812C44.8646 41.3646 43.9375 39.1042 43.9375 36.5C43.9375 33.875 44.4583 31.1667 45.5 28.375C46.5625 25.5625 47.9792 22.8854 49.75 20.3438C51.5417 17.7812 53.6458 15.3229 56.0625 12.9688C58.5 10.6146 61.0312 8.57292 63.6562 6.84375C66.2812 5.11458 69.0312 3.73958 71.9062 2.71875C74.7812 1.69792 77.5104 1.1875 80.0938 1.1875C82.1354 1.1875 83.875 1.92708 85.3125 3.40625C86.0625 4.19792 86.4375 5.19792 86.4375 6.40625C86.4375 7.59375 85.8542 9.10417 84.6875 10.9375C83.5208 12.75 82.1354 14.4062 80.5312 15.9062C78.9479 17.4062 77.3021 18.6771 75.5938 19.7188C73.9062 20.7604 72.5521 21.2812 71.5312 21.2812C70.5104 21.2812 69.6354 20.9688 68.9062 20.3438C68.1771 19.6979 67.8125 19.125 67.8125 18.625C67.8125 18.125 67.9167 17.5729 68.125 16.9688C68.3542 16.3646 68.6354 16.0625 68.9688 16.0625C68.8854 16.1667 68.8438 16.2708 68.8438 16.375C68.8438 16.625 69.1979 16.75 69.9062 16.75C70.6354 16.75 71.8438 16.1146 73.5312 14.8438C75.2188 13.5729 76.7396 12.1458 78.0938 10.5625C79.4688 8.97917 80.1562 7.79167 80.1562 7C80.1562 6.45833 79.7917 6.1875 79.0625 6.1875C77.1042 6.1875 74.3958 7.10417 70.9375 8.9375C67.5 10.75 64.2083 13.0938 61.0625 15.9688C57.9167 18.8438 55.1771 22.2604 52.8438 26.2188C50.5312 30.1562 49.375 33.6979 49.375 36.8438C49.375 38.1562 49.7188 39.2083 50.4062 40C51.1146 40.7917 52.1875 41.1875 53.625 41.1875C55.0833 41.1875 56.8021 40.7708 58.7812 39.9375C60.7604 39.1042 62.6354 38.0833 64.4062 36.875C66.1979 35.6667 67.8854 34.4271 69.4688 33.1562C71.0521 31.8854 72.3125 30.7708 73.25 29.8125C74.2083 28.8542 74.6979 28.2812 74.7188 28.0938C74.7396 27.8854 74.8333 27.7812 75 27.7812ZM83.7188 37.4062L83.3125 38.25C83.3125 38.8542 84.1562 39.4375 85.8438 40C87.5521 40.5417 89.4167 40.8125 91.4375 40.8125C93.4792 40.8125 95.7188 40.5104 98.1562 39.9062C100.594 39.3021 102.708 38.5625 104.5 37.6875C106.312 36.8125 107.802 35.8958 108.969 34.9375C110.156 33.9792 110.75 33.1458 110.75 32.4375C110.75 31.5417 109.708 30.7083 107.625 29.9375C105.542 29.1667 102.51 28.3229 98.5312 27.4062C94.5729 26.4688 91.6667 25.2917 89.8125 23.875C87.9792 22.4583 87.0625 20.7396 87.0625 18.7188C87.0625 16.6771 87.7917 14.7292 89.25 12.875C90.7083 11.0208 92.6042 9.375 94.9375 7.9375C97.2917 6.5 99.8542 5.21875 102.625 4.09375C108.354 1.78125 113.667 0.625 118.562 0.625C120.438 0.625 122.094 0.791667 123.531 1.125C126.281 1.77083 127.656 2.625 127.656 3.6875C127.656 4.75 127.562 5.47917 127.375 5.875C127.188 6.25 127.031 6.5 126.906 6.625C126.802 6.75 126.656 6.875 126.469 7C126.302 7.125 126.177 7.21875 126.094 7.28125C125.177 8.05208 122.667 8.53125 118.562 8.71875C117.146 8.78125 116.375 8.85417 116.25 8.9375C116.125 9.02083 116.01 9.0625 115.906 9.0625C115.823 9.0625 115.719 8.97917 115.594 8.8125C115.469 8.64583 115.406 8.375 115.406 8C115.406 7.625 115.812 6.9375 116.625 5.9375C114.083 6.08333 111.365 6.66667 108.469 7.6875C105.594 8.70833 103.094 9.86458 100.969 11.1562C98.8438 12.4271 97.0729 13.6875 95.6562 14.9375C94.2396 16.1667 93.5312 17.0417 93.5312 17.5625C93.5312 18.0625 93.6875 18.4792 94 18.8125C94.875 19.75 97.3021 20.7292 101.281 21.75C105.406 22.8125 108.156 23.6667 109.531 24.3125C110.906 24.9583 112.042 25.5729 112.938 26.1562C113.854 26.7396 114.583 27.3333 115.125 27.9375C116.396 29.3958 117.031 30.875 117.031 32.375C117.031 33.875 116.625 35.2812 115.812 36.5938C115.021 37.9062 113.812 39.1771 112.188 40.4062C110.583 41.6354 108.688 42.7292 106.5 43.6875C101.708 45.8333 96 46.9062 89.375 46.9062C84.5417 46.9062 81.4583 45.625 80.125 43.0625C79.7708 42.4167 79.5938 41.75 79.5938 41.0625C79.5938 40.3542 79.75 39.7188 80.0625 39.1562C80.3958 38.5938 80.7917 38.1667 81.25 37.875C82.1458 37.3125 82.7812 37.0312 83.1562 37.0312C83.5312 37.0312 83.7188 37.1562 83.7188 37.4062ZM126.531 37.4062L126.125 38.25C126.125 38.8542 126.969 39.4375 128.656 40C130.365 40.5417 132.229 40.8125 134.25 40.8125C136.292 40.8125 138.531 40.5104 140.969 39.9062C143.406 39.3021 145.521 38.5625 147.312 37.6875C149.125 36.8125 150.615 35.8958 151.781 34.9375C152.969 33.9792 153.562 33.1458 153.562 32.4375C153.562 31.5417 152.521 30.7083 150.438 29.9375C148.354 29.1667 145.323 28.3229 141.344 27.4062C137.385 26.4688 134.479 25.2917 132.625 23.875C130.792 22.4583 129.875 20.7396 129.875 18.7188C129.875 16.6771 130.604 14.7292 132.062 12.875C133.521 11.0208 135.417 9.375 137.75 7.9375C140.104 6.5 142.667 5.21875 145.438 4.09375C151.167 1.78125 156.479 0.625 161.375 0.625C163.25 0.625 164.906 0.791667 166.344 1.125C169.094 1.77083 170.469 2.625 170.469 3.6875C170.469 4.75 170.375 5.47917 170.188 5.875C170 6.25 169.844 6.5 169.719 6.625C169.615 6.75 169.469 6.875 169.281 7C169.115 7.125 168.99 7.21875 168.906 7.28125C167.99 8.05208 165.479 8.53125 161.375 8.71875C159.958 8.78125 159.188 8.85417 159.062 8.9375C158.938 9.02083 158.823 9.0625 158.719 9.0625C158.635 9.0625 158.531 8.97917 158.406 8.8125C158.281 8.64583 158.219 8.375 158.219 8C158.219 7.625 158.625 6.9375 159.438 5.9375C156.896 6.08333 154.177 6.66667 151.281 7.6875C148.406 8.70833 145.906 9.86458 143.781 11.1562C141.656 12.4271 139.885 13.6875 138.469 14.9375C137.052 16.1667 136.344 17.0417 136.344 17.5625C136.344 18.0625 136.5 18.4792 136.812 18.8125C137.688 19.75 140.115 20.7292 144.094 21.75C148.219 22.8125 150.969 23.6667 152.344 24.3125C153.719 24.9583 154.854 25.5729 155.75 26.1562C156.667 26.7396 157.396 27.3333 157.938 27.9375C159.208 29.3958 159.844 30.875 159.844 32.375C159.844 33.875 159.438 35.2812 158.625 36.5938C157.833 37.9062 156.625 39.1771 155 40.4062C153.396 41.6354 151.5 42.7292 149.312 43.6875C144.521 45.8333 138.812 46.9062 132.188 46.9062C127.354 46.9062 124.271 45.625 122.938 43.0625C122.583 42.4167 122.406 41.75 122.406 41.0625C122.406 40.3542 122.562 39.7188 122.875 39.1562C123.208 38.5938 123.604 38.1667 124.062 37.875C124.958 37.3125 125.594 37.0312 125.969 37.0312C126.344 37.0312 126.531 37.1562 126.531 37.4062Z" fill="black"/>
</svg>
